<?xml version="1.0" standalone="no"?>
<!DOCTYPE svg PUBLIC "-//W3C//DTD SVG 20010904//EN"
 "http://www.w3.org/TR/2001/REC-SVG-20010904/DTD/svg10.dtd">
<svg version="1.0" xmlns="http://www.w3.org/2000/svg"
 width="611.000000pt" height="460.000000pt" viewBox="0 0 611.000000 460.000000"
 preserveAspectRatio="xMidYMid meet">

<g transform="translate(0.000000,460.000000) scale(0.100000,-0.100000)"
fill="#000000" stroke="none">
<path d="M0 2300 l0 -2300 3055 0 3055 0 0 2300 0 2300 -3055 0 -3055 0 0
-2300z m2683 2261 l37 -1 0 -2250 0 -2250 -1299 0 c-1102 0 -1300 2 -1310 14
-8 9 -11 45 -9 98 l3 83 1198 3 1197 2 1 1438 c1 790 3 1662 5 1937 2 275 4
595 4 712 l0 212 33 3 c17 2 48 2 67 2 19 -1 52 -2 73 -3z m1197 -1 c380 -10
803 -27 930 -37 46 -3 80 -13 115 -32 28 -16 65 -32 84 -36 45 -10 84 -32 266
-150 79 -52 174 -130 256 -211 34 -34 123 -196 142 -260 8 -27 20 -76 27 -109
7 -33 20 -100 31 -150 25 -120 26 -353 3 -428 -31 -98 -129 -317 -142 -317 -4
0 -16 -17 -25 -37 -9 -21 -37 -63 -62 -93 -25 -30 -45 -57 -45 -61 0 -3 -18
-18 -41 -35 -22 -16 -68 -53 -102 -81 -34 -29 -66 -53 -70 -53 -18 0 -67 -42
-61 -52 7 -11 127 -68 144 -68 14 0 209 -133 262 -179 78 -67 288 -326 288
-356 0 -3 14 -34 31 -68 50 -100 58 -164 59 -432 0 -315 -4 -349 -54 -460 -13
-27 -31 -74 -40 -102 -10 -29 -21 -55 -26 -58 -4 -3 -34 -44 -66 -91 -93 -138
-251 -286 -359 -336 -29 -13 -61 -32 -78 -47 -9 -7 -26 -14 -39 -16 -21 -3
-69 -21 -165 -62 -17 -7 -46 -16 -65 -19 -18 -4 -42 -12 -53 -17 -70 -37 -141
-40 -1030 -44 -478 -2 -876 0 -882 5 -14 9 -21 180 -9 201 6 9 204 10 842 5
608 -5 840 -4 857 4 12 6 47 13 77 15 125 9 234 41 299 86 14 10 39 21 54 25
34 8 100 50 139 88 16 16 32 28 37 28 7 0 87 79 177 174 6 7 30 50 54 96 23
47 53 107 67 133 13 26 29 76 34 110 27 185 31 231 26 337 -4 108 -7 121 -50
221 -45 108 -98 194 -145 240 -15 14 -61 61 -101 104 -41 44 -100 97 -130 117
-31 21 -74 51 -96 67 -59 42 -212 108 -281 120 -40 8 -349 11 -972 11 l-913 0
3 111 3 111 200 -3 c110 -2 479 -4 820 -4 l620 0 116 41 c163 56 277 123 364
210 116 119 147 160 220 296 93 173 100 194 100 327 -1 177 -21 285 -80 426
-7 17 -16 41 -19 55 -3 14 -20 47 -38 74 -18 28 -50 77 -71 110 -21 34 -46 69
-55 79 -18 21 -146 107 -157 107 -5 0 -33 12 -64 26 -184 86 -183 86 -331 116
-50 10 -239 13 -842 13 l-778 0 0 107 0 107 123 4 c67 1 158 4 202 5 44 1 253
-2 465 -8z"/>
</g>
</svg>
