<?xml version="1.0" encoding="UTF-8"?>
<svg xmlns="http://www.w3.org/2000/svg" xmlns:xlink="http://www.w3.org/1999/xlink" width="45px" height="45px" viewBox="0 0 45 45" version="1.1">
<g id="surface1">
<path style=" stroke:none;fill-rule:nonzero;fill:rgb(0%,0%,0%);fill-opacity:1;" d="M 0 22.5 L 0 45 L 45 45 L 45 0 L 0 0 Z M 18.6875 11.304688 C 19.371094 11.417969 19.597656 11.417969 19.855469 11.304688 L 20.082031 11.214844 L 19.855469 11.40625 C 19.734375 11.511719 19.6875 11.578125 19.742188 11.566406 C 20.046875 11.519531 22.09375 12.058594 22.632812 12.328125 C 22.792969 12.421875 23.015625 12.453125 23.128906 12.410156 C 23.253906 12.363281 23.296875 12.375 23.253906 12.453125 C 23.175781 12.578125 23.570312 12.757812 23.839844 12.710938 C 23.917969 12.703125 23.953125 12.746094 23.90625 12.824219 C 23.839844 12.925781 23.886719 12.925781 24.0625 12.835938 C 24.1875 12.757812 24.3125 12.734375 24.3125 12.769531 C 24.320312 12.804688 24.335938 12.859375 24.34375 12.902344 C 24.390625 13.128906 24.558594 13.285156 24.703125 13.230469 C 24.796875 13.199219 24.863281 13.21875 24.863281 13.273438 C 24.863281 13.433594 25.527344 13.746094 25.707031 13.679688 C 25.808594 13.648438 25.839844 13.679688 25.808594 13.769531 C 25.742188 13.9375 26.71875 14.578125 26.988281 14.535156 C 27.113281 14.511719 27.125 14.535156 27.035156 14.589844 C 26.945312 14.660156 27.066406 14.816406 27.449219 15.097656 C 27.824219 15.378906 28.023438 15.46875 28.113281 15.378906 C 28.191406 15.300781 28.203125 15.335938 28.171875 15.480469 C 28.136719 15.625 28.25 15.816406 28.53125 16.085938 C 28.753906 16.300781 28.902344 16.414062 28.855469 16.324219 C 28.800781 16.222656 28.8125 16.1875 28.890625 16.246094 C 28.96875 16.292969 29.023438 16.390625 29.023438 16.46875 C 29.023438 16.671875 29.757812 17.347656 29.867188 17.246094 C 29.914062 17.191406 29.925781 17.222656 29.878906 17.304688 C 29.824219 17.390625 29.980469 17.671875 30.308594 18.046875 C 30.589844 18.371094 30.882812 18.777344 30.949219 18.933594 C 31.027344 19.105469 31.128906 19.203125 31.199219 19.160156 C 31.265625 19.125 31.273438 19.144531 31.230469 19.214844 C 31.128906 19.386719 31.488281 19.933594 31.648438 19.835938 C 31.703125 19.800781 31.726562 19.820312 31.691406 19.878906 C 31.648438 19.949219 31.816406 20.398438 32.050781 20.890625 C 32.511719 21.824219 33.167969 23.605469 33.320312 24.355469 C 33.796875 26.652344 33.90625 28.855469 33.582031 29.296875 C 33.488281 29.40625 33.449219 29.566406 33.488281 29.632812 C 33.523438 29.699219 33.523438 29.722656 33.488281 29.6875 C 33.449219 29.65625 33.175781 29.679688 32.886719 29.757812 C 32.46875 29.859375 32.296875 29.859375 32.0625 29.734375 C 31.433594 29.417969 31.296875 29.070312 31.230469 27.507812 C 31.199219 26.5625 30.902344 24.984375 30.78125 25.050781 C 30.722656 25.097656 30.703125 25.042969 30.746094 24.953125 C 30.859375 24.648438 29.960938 22.085938 29.644531 21.824219 C 29.550781 21.746094 29.476562 21.589844 29.476562 21.476562 C 29.476562 21.355469 29.375 21.160156 29.25 21.039062 C 29.125 20.914062 29.015625 20.777344 29.003906 20.722656 C 28.988281 20.679688 28.902344 20.65625 28.800781 20.679688 C 28.667969 20.699219 28.667969 20.6875 28.789062 20.609375 C 28.867188 20.542969 28.902344 20.441406 28.855469 20.363281 C 28.789062 20.261719 28.742188 20.261719 28.667969 20.375 C 28.597656 20.484375 28.585938 20.441406 28.632812 20.261719 C 28.699219 20.046875 28.675781 20.003906 28.53125 20.058594 C 28.394531 20.117188 28.359375 20.070312 28.386719 19.878906 C 28.394531 19.722656 28.351562 19.640625 28.257812 19.667969 C 28.171875 19.675781 28.136719 19.652344 28.171875 19.597656 C 28.203125 19.539062 28.046875 19.304688 27.824219 19.058594 C 27.597656 18.824219 27.449219 18.6875 27.507812 18.777344 C 27.5625 18.890625 27.550781 18.910156 27.460938 18.855469 C 27.394531 18.808594 27.359375 18.730469 27.394531 18.675781 C 27.460938 18.574219 26.820312 17.886719 26.652344 17.886719 C 26.585938 17.886719 26.570312 17.832031 26.605469 17.773438 C 26.640625 17.707031 26.640625 17.664062 26.585938 17.664062 C 26.539062 17.664062 26.269531 17.457031 26 17.222656 C 25.71875 16.976562 25.445312 16.808594 25.390625 16.839844 C 25.324219 16.875 25.3125 16.855469 25.359375 16.785156 C 25.4375 16.648438 25.3125 16.605469 24.976562 16.640625 C 24.828125 16.660156 24.828125 16.640625 24.964844 16.546875 C 25.085938 16.46875 25.042969 16.402344 24.761719 16.265625 C 24.570312 16.164062 24.355469 16.109375 24.300781 16.144531 C 24.234375 16.1875 24.222656 16.132812 24.265625 16.019531 C 24.3125 15.898438 24.300781 15.851562 24.222656 15.898438 C 24.152344 15.941406 24.074219 15.941406 24.054688 15.882812 C 23.996094 15.75 22.039062 14.78125 21.320312 14.535156 C 20.003906 14.097656 17.910156 13.726562 16.726562 13.726562 C 16.292969 13.726562 15.929688 13.65625 15.796875 13.554688 C 15.660156 13.464844 15.523438 13.421875 15.488281 13.453125 C 15.457031 13.488281 15.402344 13.453125 15.34375 13.375 C 15.300781 13.285156 15.3125 13.265625 15.390625 13.320312 C 15.46875 13.367188 15.523438 13.351562 15.523438 13.285156 C 15.523438 13.230469 15.480469 13.140625 15.414062 13.105469 C 15.253906 13.015625 15.265625 12.003906 15.421875 11.847656 C 15.515625 11.757812 15.515625 11.65625 15.421875 11.484375 C 15.3125 11.296875 15.320312 11.261719 15.46875 11.316406 C 15.558594 11.351562 15.601562 11.441406 15.570312 11.519531 C 15.535156 11.585938 15.59375 11.542969 15.683594 11.429688 C 15.785156 11.304688 15.863281 11.238281 15.863281 11.269531 C 15.863281 11.316406 15.984375 11.304688 16.144531 11.269531 C 16.46875 11.183594 17.988281 11.203125 18.6875 11.304688 Z M 19.539062 11.203125 C 19.507812 11.238281 19.40625 11.25 19.328125 11.214844 C 19.238281 11.183594 19.273438 11.148438 19.394531 11.148438 C 19.519531 11.136719 19.585938 11.171875 19.539062 11.203125 Z M 14.738281 19.035156 C 14.738281 19.078125 14.792969 19.125 14.851562 19.125 C 14.917969 19.125 15.140625 19.328125 15.367188 19.574219 C 15.59375 19.820312 15.839844 20.023438 15.929688 20.023438 C 16.011719 20.023438 16.109375 20.082031 16.15625 20.160156 C 16.210938 20.238281 16.179688 20.25 16.078125 20.195312 C 15.984375 20.148438 16.085938 20.285156 16.300781 20.511719 C 16.515625 20.734375 16.71875 20.902344 16.75 20.890625 C 16.785156 20.878906 16.839844 20.914062 16.863281 20.980469 C 16.964844 21.242188 18.609375 22.828125 18.710938 22.761719 C 18.777344 22.726562 18.789062 22.746094 18.753906 22.800781 C 18.6875 22.914062 19.113281 23.355469 19.640625 23.714844 C 19.753906 23.792969 19.777344 23.828125 19.6875 23.78125 C 19.597656 23.738281 19.6875 23.886719 19.902344 24.109375 C 20.117188 24.335938 20.328125 24.488281 20.375 24.457031 C 20.417969 24.433594 20.496094 24.46875 20.542969 24.535156 C 20.597656 24.625 20.578125 24.636719 20.464844 24.582031 C 20.375 24.523438 20.511719 24.695312 20.757812 24.953125 C 21.003906 25.210938 21.261719 25.402344 21.355469 25.367188 C 21.429688 25.332031 21.464844 25.367188 21.421875 25.4375 C 21.328125 25.59375 21.9375 26.222656 22.085938 26.136719 C 22.152344 26.101562 22.164062 26.109375 22.128906 26.175781 C 22.09375 26.234375 22.308594 26.527344 22.601562 26.820312 C 22.90625 27.125 23.175781 27.316406 23.195312 27.261719 C 23.230469 27.214844 23.242188 27.226562 23.21875 27.292969 C 23.1875 27.472656 23.78125 28.035156 23.90625 27.933594 C 23.953125 27.878906 23.960938 27.898438 23.925781 27.96875 C 23.851562 28.105469 24.558594 28.84375 24.660156 28.742188 C 24.695312 28.699219 24.761719 28.734375 24.816406 28.8125 C 24.875 28.902344 24.851562 28.921875 24.738281 28.855469 C 24.601562 28.777344 25.671875 29.980469 25.910156 30.148438 C 26.054688 30.273438 26.210938 30.972656 26.210938 31.5 C 26.210938 32.128906 26.066406 32.679688 25.828125 32.917969 C 25.726562 33.019531 25.671875 33.140625 25.71875 33.199219 C 25.75 33.253906 25.742188 33.289062 25.683594 33.277344 C 25.527344 33.234375 24.863281 33.703125 24.953125 33.796875 C 24.996094 33.839844 24.898438 33.851562 24.714844 33.804688 C 24.546875 33.761719 24.414062 33.769531 24.414062 33.816406 C 24.414062 33.929688 13.351562 33.90625 12.871094 33.796875 C 12.421875 33.695312 11.925781 33.300781 11.550781 32.773438 L 11.25 32.332031 L 11.25 26.402344 C 11.238281 22.367188 11.285156 20.40625 11.363281 20.25 C 11.429688 20.125 11.453125 19.957031 11.40625 19.890625 C 11.363281 19.820312 11.375 19.800781 11.441406 19.835938 C 11.511719 19.878906 11.644531 19.789062 11.746094 19.632812 C 12.171875 18.976562 13.152344 18.652344 14.128906 18.832031 C 14.46875 18.890625 14.738281 18.976562 14.738281 19.035156 Z M 30.394531 23.90625 C 30.5 24.132812 30.5 24.132812 30.328125 23.917969 C 30.226562 23.792969 30.148438 23.613281 30.160156 23.523438 C 30.160156 23.363281 30.171875 23.363281 30.226562 23.511719 C 30.261719 23.605469 30.339844 23.78125 30.394531 23.90625 Z M 11.183594 33.03125 C 11.214844 33.121094 11.203125 33.167969 11.136719 33.132812 C 11.070312 33.097656 11.023438 33.019531 11.023438 32.953125 C 11.023438 32.792969 11.101562 32.828125 11.183594 33.03125 Z M 11.183594 33.03125 "/>
</g>
</svg>
