<?xml version="1.0" encoding="UTF-8"?>
<svg xmlns="http://www.w3.org/2000/svg" xmlns:xlink="http://www.w3.org/1999/xlink" width="30px" height="26px" viewBox="0 0 29 26" version="1.1">
<g id="surface1">
<path style=" stroke:none;fill-rule:nonzero;fill:rgb(0%,0%,0%);fill-opacity:1;" d="M 1.34375 0.464844 C 1 0.59375 0.609375 0.960938 0.394531 1.363281 L 0.242188 1.660156 L 0.242188 24.691406 L 0.394531 24.988281 C 0.484375 25.152344 0.664062 25.398438 0.804688 25.535156 C 1.308594 26.035156 0.285156 26 14.519531 26 C 28.757812 26 27.730469 26.035156 28.238281 25.535156 C 28.375 25.398438 28.554688 25.152344 28.648438 24.988281 L 28.800781 24.691406 L 28.800781 1.660156 L 28.648438 1.363281 C 28.554688 1.199219 28.375 0.953125 28.238281 0.820312 C 27.730469 0.316406 28.765625 0.351562 14.492188 0.359375 C 3.363281 0.359375 1.585938 0.382812 1.34375 0.464844 Z M 20.300781 1.757812 C 21.195312 2.410156 20.75 3.816406 19.648438 3.816406 C 18.507812 3.816406 18.117188 2.246094 19.117188 1.695312 C 19.457031 1.503906 19.988281 1.539062 20.300781 1.757812 Z M 23.414062 1.746094 C 23.90625 2.113281 24.042969 2.707031 23.773438 3.242188 C 23.386719 4.027344 22.171875 4.011719 21.804688 3.230469 C 21.527344 2.613281 21.792969 1.886719 22.386719 1.632812 C 22.644531 1.519531 23.199219 1.582031 23.414062 1.746094 Z M 26.46875 1.695312 C 26.835938 1.878906 27.046875 2.246094 27.046875 2.683594 C 27.046875 3.835938 25.679688 4.246094 24.992188 3.300781 C 24.882812 3.152344 24.847656 2.996094 24.847656 2.691406 C 24.847656 2.351562 24.882812 2.238281 25.050781 2.019531 C 25.394531 1.554688 25.964844 1.425781 26.46875 1.695312 Z M 27.101562 14.625 L 27.101562 24.234375 L 1.941406 24.234375 L 1.941406 5.015625 L 27.101562 5.015625 Z M 27.101562 14.625 "/>
<path style=" stroke:none;fill-rule:nonzero;fill:rgb(0%,0%,0%);fill-opacity:1;" d="M 15.191406 9.324219 C 15.101562 9.367188 14.992188 9.496094 14.945312 9.621094 C 14.839844 9.871094 12.996094 17.578125 12.925781 18.050781 C 12.855469 18.476562 12.976562 18.703125 13.292969 18.800781 C 13.648438 18.90625 13.925781 18.78125 14.085938 18.441406 C 14.179688 18.234375 15.96875 10.902344 16.113281 10.089844 C 16.183594 9.714844 16.109375 9.488281 15.871094 9.363281 C 15.652344 9.242188 15.429688 9.234375 15.191406 9.324219 Z M 15.191406 9.324219 "/>
<path style=" stroke:none;fill-rule:nonzero;fill:rgb(0%,0%,0%);fill-opacity:1;" d="M 9.03125 11.960938 L 5.960938 13.316406 L 5.960938 14.878906 L 9.03125 16.234375 C 10.714844 16.984375 12.121094 17.59375 12.148438 17.59375 C 12.179688 17.59375 12.191406 17.191406 12.183594 16.703125 L 12.164062 15.804688 L 10.03125 14.949219 C 8.441406 14.320312 7.921875 14.082031 8.019531 14.039062 C 8.089844 14.011719 9.050781 13.628906 10.152344 13.191406 L 12.164062 12.398438 L 12.183594 11.496094 C 12.191406 11 12.179688 10.597656 12.148438 10.597656 C 12.121094 10.605469 10.714844 11.210938 9.03125 11.960938 Z M 9.03125 11.960938 "/>
<path style=" stroke:none;fill-rule:nonzero;fill:rgb(0%,0%,0%);fill-opacity:1;" d="M 16.855469 11.503906 L 16.878906 12.398438 L 18.957031 13.226562 C 20.101562 13.679688 21.0625 14.066406 21.105469 14.082031 C 21.140625 14.09375 20.683594 14.300781 20.078125 14.539062 C 19.484375 14.78125 18.507812 15.167969 17.917969 15.410156 L 16.84375 15.832031 L 16.84375 16.722656 C 16.84375 17.527344 16.855469 17.605469 16.96875 17.578125 C 17.03125 17.558594 18.4375 16.941406 20.085938 16.214844 L 23.082031 14.878906 L 23.082031 14.101562 L 23.074219 13.316406 L 20.09375 12.011719 C 18.449219 11.289062 17.042969 10.683594 16.972656 10.65625 C 16.84375 10.605469 16.84375 10.640625 16.855469 11.503906 Z M 16.855469 11.503906 "/>
</g>
</svg>
