<?xml version="1.0" encoding="UTF-8"?>
<svg xmlns="http://www.w3.org/2000/svg" xmlns:xlink="http://www.w3.org/1999/xlink" width="42px" height="56px" viewBox="0 0 42 56" version="1.1">
<g id="surface1">
<path style=" stroke:none;fill-rule:nonzero;fill:rgb(0%,0%,0%);fill-opacity:1;" d="M 9.625 33.25 L 8.75 33.25 L 8.75 28 L 9.625 28 C 11.078125 28 12.25 29.171875 12.25 30.625 C 12.25 32.078125 11.078125 33.25 9.625 33.25 Z M 21 28 L 21.875 28 C 22.835938 28 23.625 28.789062 23.625 29.75 L 23.625 36.75 C 23.625 37.710938 22.835938 38.5 21.875 38.5 L 21 38.5 Z M 24.5 0 L 24.5 14 C 24.5 15.9375 26.0625 17.5 28 17.5 L 42 17.5 L 42 49 C 42 52.859375 38.859375 56 35 56 L 7 56 C 3.132812 56 0 52.859375 0 49 L 0 7 C 0 3.132812 3.132812 0 7 0 Z M 7 24.5 C 6.03125 24.5 5.25 25.289062 5.25 26.25 L 5.25 40.25 C 5.25 41.210938 6.03125 42 7 42 C 7.96875 42 8.75 41.210938 8.75 40.25 L 8.75 36.75 L 9.625 36.75 C 13.003906 36.75 15.75 34.003906 15.75 30.625 C 15.75 27.246094 13.003906 24.5 9.625 24.5 Z M 17.5 40.25 C 17.5 41.210938 18.289062 42 19.25 42 L 21.875 42 C 24.773438 42 27.125 39.648438 27.125 36.75 L 27.125 29.75 C 27.125 26.851562 24.773438 24.5 21.875 24.5 L 19.25 24.5 C 18.289062 24.5 17.5 25.289062 17.5 26.25 Z M 31.5 24.5 C 30.539062 24.5 29.75 25.289062 29.75 26.25 L 29.75 40.25 C 29.75 41.210938 30.539062 42 31.5 42 C 32.460938 42 33.25 41.210938 33.25 40.25 L 33.25 35 L 36.75 35 C 37.710938 35 38.5 34.210938 38.5 33.25 C 38.5 32.289062 37.710938 31.5 36.75 31.5 L 33.25 31.5 L 33.25 28 L 36.75 28 C 37.710938 28 38.5 27.210938 38.5 26.25 C 38.5 25.289062 37.710938 24.5 36.75 24.5 Z M 28 0 L 42 14 L 28 14 Z M 28 0 "/>
</g>
</svg>
