<?xml version="1.0" standalone="no"?>
<!DOCTYPE svg PUBLIC "-//W3C//DTD SVG 20010904//EN"
 "http://www.w3.org/TR/2001/REC-SVG-20010904/DTD/svg10.dtd">
<svg version="1.0" xmlns="http://www.w3.org/2000/svg"
 width="400.000000pt" height="400.000000pt" viewBox="0 0 400.000000 400.000000"
 preserveAspectRatio="xMidYMid meet">

<g transform="translate(0.000000,400.000000) scale(0.100000,-0.100000)"
fill="#000000" stroke="none">
<path d="M0 2000 l0 -2000 2000 0 2000 0 0 2000 0 2000 -2000 0 -2000 0 0
-2000z m1661 995 c61 -10 81 -10 104 0 l20 8 -20 -17 c-11 -9 -15 -15 -10 -14
27 4 209 -44 257 -68 14 -8 34 -11 44 -7 11 4 15 3 11 -4 -7 -11 28 -27 52
-23 7 1 10 -3 6 -10 -6 -9 -2 -9 14 -1 11 7 22 9 22 6 1 -3 2 -8 3 -12 4 -20
19 -34 32 -29 8 3 14 1 14 -4 0 -14 59 -42 75 -36 9 3 12 0 9 -8 -6 -15 81
-72 105 -68 11 2 12 0 4 -5 -8 -6 3 -20 37 -45 33 -25 51 -33 59 -25 7 7 8 4
5 -9 -3 -13 7 -30 32 -54 20 -19 33 -29 29 -21 -5 9 -4 12 3 7 7 -4 12 -13 12
-20 0 -18 65 -78 75 -69 4 5 5 2 1 -5 -5 -8 9 -33 38 -66 25 -29 51 -65 57
-79 7 -15 16 -24 22 -20 6 3 7 1 3 -5 -9 -15 23 -64 37 -55 5 3 7 1 4 -4 -4
-6 11 -46 32 -90 41 -83 99 -241 113 -308 42 -204 52 -400 23 -439 -8 -10 -12
-24 -8 -30 3 -6 3 -8 0 -5 -4 3 -28 1 -54 -6 -37 -9 -52 -9 -73 2 -56 28 -68
59 -74 198 -3 84 -29 224 -40 218 -5 -4 -7 1 -3 9 10 27 -70 255 -98 278 -8 7
-15 21 -15 31 0 11 -9 28 -20 39 -11 11 -21 23 -22 28 -1 4 -9 6 -18 4 -12 -2
-12 -1 -1 6 7 6 10 15 6 22 -6 9 -10 9 -17 -1 -6 -10 -7 -6 -3 10 6 19 4 23
-9 18 -12 -5 -15 -1 -13 16 1 14 -3 21 -11 19 -8 -1 -11 1 -8 6 3 5 -11 26
-31 48 -20 21 -33 33 -28 25 5 -10 4 -12 -4 -7 -6 4 -9 11 -6 16 6 9 -51 70
-66 70 -6 0 -7 5 -4 10 3 6 3 10 -2 10 -4 0 -28 18 -52 39 -25 22 -49 37 -54
34 -6 -3 -7 -1 -3 5 7 12 -4 16 -34 13 -13 -2 -13 0 -1 8 11 7 7 13 -18 25
-17 9 -36 14 -41 11 -6 -4 -7 1 -3 11 4 11 3 15 -4 11 -6 -4 -13 -4 -15 1 -5
12 -179 98 -243 120 -117 39 -303 72 -408 72 -39 0 -71 6 -83 15 -12 8 -24 12
-27 9 -3 -3 -8 0 -13 7 -4 8 -3 10 4 5 7 -4 12 -3 12 3 0 5 -4 13 -10 16 -14
8 -13 98 1 112 8 8 8 17 0 32 -10 17 -9 20 4 15 8 -3 12 -11 9 -18 -3 -6 2 -2
10 8 9 11 16 17 16 14 0 -4 11 -3 25 0 29 8 164 6 226 -3z m76 9 c-3 -3 -12
-4 -19 -1 -8 3 -5 6 6 6 11 1 17 -2 13 -5z m-427 -696 c0 -4 5 -8 10 -8 6 0
26 -18 46 -40 20 -22 42 -40 50 -40 7 0 16 -5 20 -12 5 -7 2 -8 -7 -3 -8 4 1
-8 20 -28 19 -20 37 -35 40 -34 3 1 8 -2 10 -8 9 -23 155 -164 164 -158 6 3 7
1 4 -4 -6 -10 32 -49 79 -81 10 -7 12 -10 4 -6 -8 4 0 -9 19 -29 19 -20 38
-34 42 -31 4 2 11 -1 15 -7 5 -8 3 -9 -7 -4 -8 5 4 -10 26 -33 22 -23 45 -40
53 -37 7 3 10 0 6 -6 -8 -14 46 -70 59 -62 6 3 7 2 4 -4 -3 -5 16 -31 42 -57
27 -27 51 -44 53 -39 3 4 4 3 2 -3 -3 -16 50 -66 61 -57 4 5 5 3 2 -3 -7 -12
56 -78 65 -69 3 4 9 1 14 -6 5 -8 3 -10 -7 -4 -12 7 83 -100 104 -115 13 -11
27 -73 27 -120 0 -56 -13 -105 -34 -126 -9 -9 -14 -20 -10 -25 3 -5 2 -8 -3
-7 -14 4 -73 -38 -65 -46 4 -4 -5 -5 -21 -1 -15 4 -27 3 -27 -1 0 -10 -983 -8
-1026 2 -40 9 -84 44 -117 91 l-27 39 0 527 c-1 359 3 533 10 547 6 11 8 26 4
32 -4 6 -3 8 3 5 6 -4 18 4 27 18 38 58 125 87 212 71 30 -5 54 -13 54 -18z
m1392 -433 c9 -20 9 -20 -6 -1 -9 11 -16 27 -15 35 0 14 1 14 6 1 3 -8 10 -24
15 -35z m-1708 -811 c3 -8 2 -12 -4 -9 -6 3 -10 10 -10 16 0 14 7 11 14 -7z"/>
</g>
</svg>
